# Blender 4.5.0
# www.blender.org
mtllib arrow.mtl
o cone
v 0.000000 0.000908 -0.500000
v 0.000000 0.000908 -0.750000
v 0.055630 0.119396 -0.500000
v 0.125000 0.030172 -0.500000
v 0.100242 -0.081089 -0.500000
v 0.000000 -0.130604 -0.500000
v -0.100242 -0.081089 -0.500000
v -0.125000 0.030172 -0.500000
v -0.055630 0.119396 -0.500000
vn -0.0000 -0.0000 1.0000
vn 0.7154 0.5562 -0.4228
vn 0.8859 -0.1971 -0.4199
vn 0.4006 -0.8109 -0.4266
vn -0.4006 -0.8109 -0.4266
vn -0.8859 -0.1971 -0.4199
vn -0.7154 0.5562 -0.4228
vn -0.0000 0.9036 -0.4283
vt 0.069370 0.945764
vt 0.043251 1.000000
vt 0.000000 0.945764
vt 0.000000 0.860246
vt 0.060197 0.860246
vt 0.030098 1.000000
vt 0.043251 0.945765
vt 0.069370 1.000000
vt 0.000000 1.000000
vt 0.000000 0.930630
vt 0.054235 0.956748
vt 0.000000 0.956748
vt 0.054235 0.930630
vt 0.054235 1.000000
vt 0.000000 1.000000
vt 0.000000 0.939803
vt 0.062500 0.969902
vt 0.054236 1.000000
vt 0.000000 0.973881
vt 0.054236 0.930630
vt 0.060197 1.000000
vt 0.030098 0.937500
s 1
usemtl base
f 4/1/1 3/2/1 1/3/1
f 3/4/2 4/5/2 2/6/2
f 5/7/1 4/8/1 1/9/1
f 4/4/3 5/5/3 2/6/3
f 6/10/1 5/11/1 1/9/1
f 5/4/4 6/5/4 2/6/4
f 7/12/1 6/13/1 1/14/1
f 6/4/5 7/5/5 2/6/5
f 8/15/1 7/16/1 1/17/1
f 7/4/6 8/5/6 2/6/6
f 9/18/1 8/19/1 1/20/1
f 8/4/7 9/5/7 2/6/7
f 3/21/1 9/9/1 1/22/1
f 9/4/8 3/5/8 2/6/8
o cylinder
v 0.000000 -0.002348 0.500000
v 0.000000 -0.002348 -0.500000
v 0.027815 0.056896 0.500000
v 0.027815 0.056896 -0.500000
v 0.062500 0.012284 0.500000
v 0.062500 0.012284 -0.500000
v 0.050121 -0.043346 0.500000
v 0.050121 -0.043346 -0.500000
v 0.000000 -0.068104 0.500000
v 0.000000 -0.068104 -0.500000
v -0.050121 -0.043346 0.500000
v -0.050121 -0.043346 -0.500000
v -0.062500 0.012284 0.500000
v -0.062500 0.012284 -0.500000
v -0.027815 0.056896 0.500000
v -0.027815 0.056896 -0.500000
vn -0.0000 -0.0000 1.0000
vn 0.7895 0.6138 -0.0000
vn -0.0000 -0.0000 -1.0000
vn 0.9761 -0.2172 -0.0000
vn 0.4429 -0.8966 -0.0000
vn -0.4429 -0.8966 -0.0000
vn -0.9761 -0.2172 -0.0000
vn -0.7895 0.6138 -0.0000
vn -0.0000 1.0000 -0.0000
vt 0.069370 0.945764
vt 0.043251 1.000000
vt 0.000000 0.945764
vt 0.000000 0.875000
vt 0.060197 0.875000
vt 0.060197 1.000000
vt 0.000000 1.000000
vt 0.000000 0.930630
vt 0.054236 0.956749
vt 0.043251 0.945765
vt 0.069370 1.000000
vt 0.062500 0.939803
vt 0.062500 1.000000
vt 0.000000 0.969902
vt 0.000000 0.930630
vt 0.054235 0.956748
vt 0.054235 0.973882
vt 0.000000 0.956748
vt 0.054235 0.930630
vt 0.054235 1.000000
vt 0.000000 0.973882
vt 0.000000 1.000000
vt 0.000000 0.939803
vt 0.062500 0.969902
vt 0.026118 1.000000
vt 0.000000 0.945765
vt 0.069370 0.945765
vt 0.054236 1.000000
vt 0.000000 0.973881
vt 0.054236 0.930630
vt 0.026118 0.945764
vt 0.030098 0.937500
vt 0.000000 0.937500
vt 0.060197 0.937500
vt 0.030098 1.000000
s 1
usemtl base
f 14/23/9 12/24/9 10/25/9
f 12/26/10 14/27/10 15/28/10 13/29/10
f 13/30/11 15/31/11 11/29/11
f 16/32/9 14/33/9 10/29/9
f 14/26/12 16/27/12 17/28/12 15/29/12
f 15/34/11 17/35/11 11/36/11
f 18/37/9 16/38/9 10/29/9
f 16/26/13 18/27/13 19/28/13 17/29/13
f 17/39/11 19/29/11 11/37/11
f 20/40/9 18/41/9 10/42/9
f 18/26/14 20/27/14 21/28/14 19/29/14
f 19/42/11 21/43/11 11/41/11
f 22/44/9 20/45/9 10/46/9
f 20/26/15 22/27/15 23/28/15 21/29/15
f 21/47/11 23/48/11 11/49/11
f 24/50/9 22/51/9 10/52/9
f 22/26/16 24/27/16 25/28/16 23/29/16
f 23/29/11 25/53/11 11/33/11
f 12/28/9 24/29/9 10/54/9
f 24/26/17 12/27/17 13/28/17 25/29/17
f 25/55/11 13/56/11 11/57/11
