# Blender 4.5.0
# www.blender.org
mtllib ring.mtl
o ring
v -0.972776 0.062500 -0.260655
v 0.267949 0.000000 1.000000
v 0.267949 0.062500 1.000000
v 0.260655 0.000000 0.972776
v 0.260655 0.062500 0.972776
v 0.732051 0.000000 0.732051
v 0.732051 0.062500 0.732051
v 0.712122 0.000000 0.712122
v 0.712122 0.062500 0.712122
v 1.000000 0.000000 0.267949
v 1.000000 0.062500 0.267949
v 0.972776 0.000000 0.260655
v 0.972776 0.062500 0.260655
v 1.000000 -0.000000 -0.267949
v 1.000000 0.062500 -0.267949
v 0.972776 -0.000000 -0.260655
v 0.972776 0.062500 -0.260655
v 0.732051 -0.000000 -0.732051
v 0.732051 0.062500 -0.732051
v 0.712122 -0.000000 -0.712122
v 0.712122 0.062500 -0.712122
v 0.267949 -0.000000 -1.000000
v 0.267949 0.062500 -1.000000
v 0.260655 -0.000000 -0.972776
v 0.260655 0.062500 -0.972776
v -0.267949 -0.000000 -1.000000
v -0.267949 0.062500 -1.000000
v -0.260655 -0.000000 -0.972776
v -0.260655 0.062500 -0.972776
v -0.732051 -0.000000 -0.732051
v -0.732051 0.062500 -0.732051
v -0.712122 -0.000000 -0.712122
v -0.712122 0.062500 -0.712122
v -1.000000 -0.000000 -0.267949
v -1.000000 0.062500 -0.267949
v -0.972776 -0.000000 -0.260655
v -1.000000 0.000000 0.267949
v -1.000000 0.062500 0.267949
v -0.972776 0.000000 0.260655
v -0.972776 0.062500 0.260655
v -0.732051 0.000000 0.732051
v -0.732051 0.062500 0.732051
v -0.712122 0.000000 0.712122
v -0.712122 0.062500 0.712122
v -0.267949 0.000000 1.000000
v -0.267949 0.062500 1.000000
v -0.260655 0.000000 0.972776
v -0.260655 0.062500 0.972776
vn 0.5000 -0.0000 0.8660
vn -0.5000 -0.0000 -0.8660
vn -0.0000 -1.0000 -0.0000
vn -0.0000 1.0000 -0.0000
vn 0.8660 -0.0000 0.5000
vn -0.8660 -0.0000 -0.5000
vn 1.0000 -0.0000 -0.0000
vn -1.0000 -0.0000 -0.0000
vn 0.8660 -0.0000 -0.5000
vn -0.8660 -0.0000 0.5000
vn 0.5000 -0.0000 -0.8660
vn -0.5000 -0.0000 0.8660
vn -0.0000 -0.0000 -1.0000
vn -0.0000 -0.0000 1.0000
vt 0.000000 0.892190
vt 0.996675 0.892190
vt 0.996675 1.000000
vt 0.000000 1.000000
vt 0.969545 1.000000
vt 0.969545 0.892190
vt 0.000000 0.987414
vt 0.000000 0.088179
vt 0.050637 0.075595
vt 0.050632 1.000000
vt 0.000000 0.953035
vt 0.996670 0.953035
vt 0.983102 1.000000
vt 0.013569 0.999996
vt 0.000000 0.987416
vt 0.000000 0.088181
vt 0.050632 0.075595
vt 0.050637 1.000000
vt 0.000000 0.953035
vt 0.983101 0.999996
vt 0.013568 1.000000
vt 0.000000 0.987419
vt 0.000000 0.088172
vt 0.050633 0.075591
vt 0.050633 1.000000
vt 0.983101 1.000000
vt 0.013568 1.000000
vt 0.000000 0.953035
vt 0.996670 0.953039
vt 0.050636 0.075595
vt 0.050636 1.000000
vt 0.000000 0.987416
vt 0.000004 0.088180
vt 0.983103 1.000000
vt 0.013569 1.000000
vt 0.000000 0.953039
vt 0.996670 0.953035
vt 0.000004 0.987415
vt 0.000000 0.088179
vt 0.983110 1.000000
vt 0.013565 1.000000
vt 0.000000 0.953038
vt 0.996675 0.953038
vt 0.013565 0.953038
vt 0.983110 0.953038
vt 0.050637 0.088181
vt 0.050637 0.987416
vt 0.000004 0.075595
vt 0.996670 1.000000
vt 0.013568 0.953035
vt 0.983101 0.953039
vt 0.050637 0.088179
vt 0.050637 0.987414
vt 0.000004 1.000000
vt 0.000000 0.075595
vt 0.013569 0.953039
vt 0.983102 0.953035
vt 0.050633 0.088172
vt 0.050633 0.987419
vt 0.000000 0.075591
vt 0.013569 0.953035
vt 0.983103 0.953035
vt 0.000000 0.999996
vt 0.000000 1.000000
vt 0.000000 0.075595
vt 0.050636 0.088179
vt 0.050632 0.987415
vt 0.013568 0.953035
vt 0.983101 0.953035
vt 0.996670 0.999996
vt 0.000000 0.075595
vt 0.050632 0.088180
vt 0.050636 0.987416
s 1
usemtl base
f 2/1/1 6/2/1 7/3/1 3/4/1
f 5/5/2 9/4/2 8/1/2 4/6/2
f 4/7/3 8/8/3 6/9/3 2/10/3
f 3/11/4 7/12/4 9/13/4 5/14/4
f 6/1/5 10/2/5 11/3/5 7/4/5
f 9/5/6 13/4/6 12/1/6 8/6/6
f 8/15/3 12/16/3 10/17/3 6/18/3
f 7/19/4 11/12/4 13/20/4 9/21/4
f 10/1/7 14/2/7 15/3/7 11/4/7
f 13/5/8 17/4/8 16/1/8 12/6/8
f 12/22/3 16/23/3 14/24/3 10/25/3
f 11/24/4 15/25/4 17/22/4 13/23/4
f 14/1/9 18/2/9 19/3/9 15/4/9
f 17/5/10 21/4/10 20/1/10 16/6/10
f 16/26/3 20/27/3 18/28/3 14/29/3
f 15/30/4 19/31/4 21/32/4 17/33/4
f 18/1/11 22/2/11 23/3/11 19/4/11
f 21/5/12 25/4/12 24/1/12 20/6/12
f 20/34/3 24/35/3 22/36/3 18/37/3
f 19/30/4 23/31/4 25/38/4 21/39/4
f 22/1/13 26/2/13 27/3/13 23/4/13
f 25/5/14 29/4/14 28/1/14 24/6/14
f 24/40/3 28/41/3 26/42/3 22/43/3
f 23/3/4 27/4/4 29/44/4 25/45/4
f 26/1/2 30/2/2 31/3/2 27/4/2
f 29/5/1 33/4/1 32/1/1 28/6/1
f 28/46/3 32/47/3 30/4/3 26/48/3
f 27/49/4 31/4/4 33/50/4 29/51/4
f 30/1/6 34/2/6 35/3/6 31/4/6
f 33/5/5 1/4/5 36/1/5 32/6/5
f 32/52/3 36/53/3 34/54/3 30/55/3
f 31/49/4 35/4/4 1/56/4 33/57/4
f 34/1/8 37/2/8 38/3/8 35/4/8
f 1/5/7 40/4/7 39/1/7 36/6/7
f 36/58/3 39/59/3 37/4/3 34/60/3
f 35/4/4 38/60/4 40/58/4 1/59/4
f 37/1/10 41/2/10 42/3/10 38/4/10
f 40/5/9 44/4/9 43/1/9 39/6/9
f 39/61/3 43/62/3 41/49/3 37/63/3
f 38/64/4 42/65/4 44/66/4 40/67/4
f 41/1/12 45/2/12 46/3/12 42/4/12
f 44/5/11 48/4/11 47/1/11 43/6/11
f 43/68/3 47/69/3 45/70/3 41/4/3
f 42/64/4 46/71/4 48/72/4 44/73/4
f 45/1/14 2/2/14 3/3/14 46/4/14
f 48/5/13 5/4/13 4/1/13 47/6/13
f 47/44/3 4/45/3 2/3/3 45/4/3
f 46/42/4 3/43/4 5/40/4 48/41/4
